<svg width="25" height="23" viewBox="0 0 25 23" fill="none" xmlns="http://www.w3.org/2000/svg">
<path d="M19.7944 16.7058C18.0755 16.7058 16.6772 18.1042 16.6772 19.823C16.6772 21.5418 18.0756 22.9402 19.7944 22.9402C21.5132 22.9402 22.9116 21.5418 22.9116 19.823C22.9116 18.1042 21.5132 16.7058 19.7944 16.7058ZM19.7944 21.0698C19.1067 21.0698 18.5475 20.5106 18.5475 19.823C18.5475 19.1353 19.1067 18.5761 19.7944 18.5761C20.482 18.5761 21.0413 19.1353 21.0413 19.823C21.0413 20.5106 20.482 21.0698 19.7944 21.0698Z" fill="#313131"/>
<path d="M24.8013 4.65799C24.6242 4.43137 24.3527 4.29919 24.065 4.29919H5.77249L4.93084 0.77769C4.83015 0.356887 4.45388 0.0598145 4.02121 0.0598145H0.935162C0.418655 0.0597656 0 0.47842 0 0.994927C0 1.51143 0.418655 1.93009 0.935162 1.93009H3.28308L6.32235 14.6471C6.42304 15.0683 6.79931 15.365 7.23198 15.365H21.7894C22.2193 15.365 22.594 15.072 22.6972 14.6549L24.9728 5.45906C25.0416 5.17982 24.9783 4.8846 24.8013 4.65799ZM21.0578 13.4947H7.97011L6.21947 6.16952H22.8701L21.0578 13.4947Z" fill="#313131"/>
<path d="M8.47884 16.7058C6.75999 16.7058 5.36164 18.1042 5.36164 19.823C5.36164 21.5418 6.76004 22.9402 8.47884 22.9402C10.1977 22.9402 11.5961 21.5418 11.5961 19.823C11.5961 18.1042 10.1977 16.7058 8.47884 16.7058ZM8.47884 21.0698C7.79119 21.0698 7.23196 20.5106 7.23196 19.823C7.23196 19.1353 7.79119 18.5761 8.47884 18.5761C9.1665 18.5761 9.72573 19.1353 9.72573 19.823C9.72573 20.5106 9.1665 21.0698 8.47884 21.0698Z" fill="#313131"/>
</svg>
